<svg viewBox="0 0 256 110" xmlns="http://www.w3.org/2000/svg" fill="none">
  <path d="M170.8 74.5c-1.9-9.5-10.3-16.8-20.3-17-1-.2-1.7-.3-2.7-.3-3.7-15.3-17.5-26.7-33.8-26.7-17.8 0-32.6 13.5-34.5 30.8-12.9 1.1-23.2 11.8-23.2 24.9 0 1.8.2 3.5.6 5.2h110.5c2.3 0 4.1-1.8 4.1-4.1 0-4.4-.3-8.8-.7-12.8Z" fill="#F38020"/>
  <path d="M202.8 91.4c0-10.1-8.1-18.2-18.2-18.2-1.8 0-3.5.3-5.2.8-2.9-13.4-14.8-23.5-29-23.5-15.5 0-28.2 12-29.3 27.2-8.9 1-15.8 8.6-15.8 17.8 0 1.4.2 2.7.5 4h93.5c1.9 0 3.5-1.6 3.5-3.5v-4.6Z" fill="#FAAE40"/>
</svg>
