<svg xmlns="http://www.w3.org/2000/svg" viewBox="0 0 256 181" role="img" aria-label="Docker logo">
  <path fill="#2496ED" d="M246.4 67.5c-4.6-3-15.2-4.1-23.1-2.5c-1.1-8.1-4.7-15.1-10.9-20.8l-3.2-2.8l-2.1 3.6c-4.4 7.5-5.8 20.3-1.2 28.7c-2.1 1.2-6.4 2.8-12.2 2.8H19.8c-1.1 6.6-.8 22 4.9 35.6c7.5 17.8 22.3 26.8 43.9 26.8h121.9c48.9 0 85.3-23 100.2-63.1l1.4-3.7l-3.9-.9c-11.7-2.7-28.4-2.1-41.8 1.3zM46.3 67h21.6V45.4H46.3V67zm25.4 0h21.6V45.4H71.7V67zm25.4 0h21.6V45.4H97.1V67zm25.4 0h21.6V45.4h-21.6V67zm-50.8-25.4h21.6V19.9H71.7v21.7zm25.4 0h21.6V19.9H97.1v21.7zm25.4 0h21.6V19.9h-21.6v21.7zm-25.4-25.4h21.6V0H97.1v16.2z"/>
  <circle cx="188.2" cy="92.2" r="3.8" fill="#fff"/>
</svg>
