<svg xmlns="http://www.w3.org/2000/svg" viewBox="0 0 128 128">
  <g fill="#2496ED">
    <rect x="22" y="49" width="12" height="12"/>
    <rect x="36" y="49" width="12" height="12"/>
    <rect x="50" y="49" width="12" height="12"/>
    <rect x="64" y="49" width="12" height="12"/>
    <rect x="36" y="35" width="12" height="12"/>
    <rect x="50" y="35" width="12" height="12"/>
    <rect x="64" y="35" width="12" height="12"/>
    <rect x="50" y="21" width="12" height="12"/>
    <path d="M18 67h69c5 0 8-2 11-8 5 3 10 2 15-1-1 12-9 26-25 26H38c-12 0-18-6-20-17Z"/>
  </g>
</svg>
