<svg xmlns="http://www.w3.org/2000/svg" viewBox="0 0 128 128">
  <path fill="#478CBF" d="M64 8c31 0 56 25 56 56s-25 56-56 56S8 95 8 64 33 8 64 8Z"/>
  <circle cx="40" cy="52" r="11" fill="#FFF"/>
  <circle cx="88" cy="52" r="11" fill="#FFF"/>
  <circle cx="40" cy="52" r="4.5" fill="#2D2D2D"/>
  <circle cx="88" cy="52" r="4.5" fill="#2D2D2D"/>
  <path fill="#2D2D2D" d="M23 28c0-6 5-11 11-11s11 5 11 11-5 11-11 11-11-5-11-11Zm71 0c0-6 5-11 11-11s11 5 11 11-5 11-11 11-11-5-11-11Z"/>
  <path d="M34 82c7 12 18 19 30 19s23-7 30-19" fill="none" stroke="#FFF" stroke-width="9" stroke-linecap="round"/>
</svg>
