<svg viewBox="0 -14.5 256 256" xmlns="http://www.w3.org/2000/svg" fill="none">
  <path d="M148.367708 12.402529C144.036807 5.214807 136.258026.820119 127.866362.820119s-16.170446 4.394688-20.501346 11.58241L73.640302 70.165071c52.425851 26.173988 87.048783 78.176656 90.974722 136.641471H140.93597c-3.918457-50.112209-34.061125-94.409844-79.237702-116.447645L30.484968 144.32869c25.364802 11.375736 43.192869 34.882516 47.306856 62.375345H23.412004c-1.310156-.092674-2.485389-.839366-3.125876-1.986045-.640488-1.146679-.659975-2.538922-.051833-3.703078l15.068489-25.626683c-5.105162-4.259431-10.939753-7.558753-17.221131-9.738139L3.166925 191.276772c-3.136361 5.379645-3.985586 11.791947-2.357714 17.802552 1.627872 6.010606 5.596998 11.117937 11.019533 14.179548 3.536978 1.992857 7.523566 3.051244 11.583261 3.075202h74.471139c2.813131-34.713196-12.740806-68.368027-41.002692-88.719575l11.839527-20.501346c35.678834 24.505089 55.753758 66.038743 52.790966 109.220921h63.092892c2.990062-65.42995-29.046559-127.511883-84.106772-162.9857l23.935321-41.002692c1.110122-1.859996 3.511943-2.477607 5.381604-1.383841 2.716428 1.486347 103.993077 178.20795 105.889452 180.258084.680034 1.219364.655455 2.709427-.064425 3.905699-.719881 1.196272-2.024951 1.915773-3.420803 1.885931h-24.396602c.30752 6.526262.30752 13.035439 0 19.528037h24.499109c6.283701.040626 12.322694-2.433861 16.770848-6.872387 4.448154-4.438526 6.935721-10.472143 6.908432-16.755919.002825-4.1091-1.094404-8.144071-3.177934-11.685767L148.367708 12.402529Z" fill="#8B5CF6"/>
</svg>
